<svg enable-background="new 0 0 82.5 60.3" viewBox="0 0 82.5 60.3" xmlns="http://www.w3.org/2000/svg" xmlns:xlink="http://www.w3.org/1999/xlink"><clipPath id="a"><path d="m25.3 18.5c-9.5 4.1-18 10-25.3 17.4.1 6.1 4.6 11.2 10.7 12.1 6.6-7.9 16.3-15.2 28.1-20.5 13-5.9 26.3-8.1 37.3-7.2-.9-3.7-3.7-6.7-7.3-7.9-.3-.1-.5-.2-.8-.3-3.4-.7-7-1-10.5-1-11.1.2-22.1 2.7-32.2 7.4"/></clipPath><clipPath id="b"><path d="m-.2-11.6h76.5v82.3h-76.5z" transform="matrix(.6293 -.7771 .7771 .6293 -8.8625 40.4993)"/></clipPath><clipPath id="c"><path d="m-.2-11.6h76.5v82.3h-76.5z" transform="matrix(.6293 -.7771 .7771 .6293 -8.8625 40.4993)"/></clipPath><clipPath id="d"><path d="m-.2-11.6h76.5v82.3h-76.5z" transform="matrix(.6293 -.7771 .7771 .6293 -8.8625 40.4993)"/></clipPath><clipPath id="e"><path d="m-.2-11.6h76.5v82.3h-76.5z" transform="matrix(.6293 -.7771 .7771 .6293 -8.8625 40.4993)"/></clipPath><clipPath id="f"><path d="m-.2-11.6h76.5v82.3h-76.5z" transform="matrix(.6293 -.7771 .7771 .6293 -8.8625 40.4993)"/></clipPath><clipPath id="g"><path d="m-.2-11.6h76.5v82.3h-76.5z" transform="matrix(.6293 -.7771 .7771 .6293 -8.8625 40.4993)"/></clipPath><clipPath id="h"><path d="m-.2-11.6h76.5v82.3h-76.5z" transform="matrix(.6293 -.7771 .7771 .6293 -8.8625 40.4993)"/></clipPath><clipPath id="i"><path d="m-.2-11.6h76.5v82.3h-76.5z" transform="matrix(.6293 -.7771 .7771 .6293 -8.8625 40.4993)"/></clipPath><clipPath id="j"><path d="m-.2-11.6h76.5v82.3h-76.5z" transform="matrix(.6293 -.7771 .7771 .6293 -8.8625 40.4993)"/></clipPath><clipPath id="k"><path d="m-.2-11.6h76.5v82.3h-76.5z" transform="matrix(.6293 -.7771 .7771 .6293 -8.8625 40.4993)"/></clipPath><clipPath id="l"><path d="m-.2-11.6h76.5v82.3h-76.5z" transform="matrix(.6293 -.7771 .7771 .6293 -8.8625 40.4993)"/></clipPath><clipPath id="m"><path d="m-.2-11.6h76.5v82.3h-76.5z" transform="matrix(.6293 -.7771 .7771 .6293 -8.8625 40.4993)"/></clipPath><clipPath id="n"><path d="m-.2-11.6h76.5v82.3h-76.5z" transform="matrix(.6293 -.7771 .7771 .6293 -8.8625 40.4993)"/></clipPath><clipPath id="o"><path d="m-.2-11.6h76.5v82.3h-76.5z" transform="matrix(.6293 -.7771 .7771 .6293 -8.8625 40.4993)"/></clipPath><clipPath id="p"><path d="m-.2-11.6h76.5v82.3h-76.5z" transform="matrix(.6293 -.7771 .7771 .6293 -8.8625 40.4993)"/></clipPath><clipPath id="q"><path d="m-.2-11.6h76.5v82.3h-76.5z" transform="matrix(.6293 -.7771 .7771 .6293 -8.8625 40.4993)"/></clipPath><clipPath id="r"><path d="m-.2-11.6h76.5v82.3h-76.5z" transform="matrix(.6293 -.7771 .7771 .6293 -8.8625 40.4993)"/></clipPath><clipPath id="s"><path d="m-.2-11.6h76.5v82.3h-76.5z" transform="matrix(.6293 -.7771 .7771 .6293 -8.8625 40.4993)"/></clipPath><clipPath id="t"><path d="m-.2-11.6h76.5v82.3h-76.5z" transform="matrix(.6293 -.7771 .7771 .6293 -8.8625 40.4993)"/></clipPath><clipPath id="u"><path d="m-.2-11.6h76.5v82.3h-76.5z" transform="matrix(.6293 -.7771 .7771 .6293 -8.8625 40.4993)"/></clipPath><clipPath id="v"><path d="m-.2-11.6h76.5v82.3h-76.5z" transform="matrix(.6293 -.7771 .7771 .6293 -8.8625 40.4993)"/></clipPath><clipPath id="w"><path d="m-.2-11.6h76.5v82.3h-76.5z" transform="matrix(.6293 -.7771 .7771 .6293 -8.8625 40.4993)"/></clipPath><clipPath id="x"><path d="m-.2-11.6h76.5v82.3h-76.5z" transform="matrix(.6293 -.7771 .7771 .6293 -8.8625 40.4993)"/></clipPath><clipPath id="y"><path d="m-.2-11.6h76.5v82.3h-76.5z" transform="matrix(.6293 -.7771 .7771 .6293 -8.8625 40.4993)"/></clipPath><clipPath id="z"><path d="m-.2-11.6h76.5v82.3h-76.5z" transform="matrix(.6293 -.7771 .7771 .6293 -8.8625 40.4993)"/></clipPath><clipPath id="A"><path d="m-.2-11.6h76.5v82.3h-76.5z" transform="matrix(.6293 -.7771 .7771 .6293 -8.8625 40.4993)"/></clipPath><clipPath id="B"><path d="m-.2-11.6h76.5v82.3h-76.5z" transform="matrix(.6293 -.7771 .7771 .6293 -8.8625 40.4993)"/></clipPath><clipPath id="C"><path d="m-.2-11.6h76.5v82.3h-76.5z" transform="matrix(.6293 -.7771 .7771 .6293 -8.8625 40.4993)"/></clipPath><clipPath id="D"><path d="m-.2-11.6h76.5v82.3h-76.5z" transform="matrix(.6293 -.7771 .7771 .6293 -8.8625 40.4993)"/></clipPath><clipPath id="E"><path d="m-.2-11.6h76.5v82.3h-76.5z" transform="matrix(.6293 -.7771 .7771 .6293 -8.8625 40.4993)"/></clipPath><clipPath id="F"><path d="m-.2-11.6h76.5v82.3h-76.5z" transform="matrix(.6293 -.7771 .7771 .6293 -8.8625 40.4993)"/></clipPath><clipPath id="G"><path d="m-.2-11.6h76.5v82.3h-76.5z" transform="matrix(.6293 -.7771 .7771 .6293 -8.8625 40.4993)"/></clipPath><clipPath id="H"><path d="m-.2-11.6h76.5v82.3h-76.5z" transform="matrix(.6293 -.7771 .7771 .6293 -8.8625 40.4993)"/></clipPath><clipPath id="I"><path d="m-.2-11.6h76.5v82.3h-76.5z" transform="matrix(.6293 -.7771 .7771 .6293 -8.8625 40.4993)"/></clipPath><clipPath id="J"><path d="m-.2-11.6h76.5v82.3h-76.5z" transform="matrix(.6293 -.7771 .7771 .6293 -8.8625 40.4993)"/></clipPath><clipPath id="K"><path d="m-.2-11.6h76.5v82.3h-76.5z" transform="matrix(.6293 -.7771 .7771 .6293 -8.8625 40.4993)"/></clipPath><clipPath id="L"><path d="m-.2-11.6h76.5v82.3h-76.5z" transform="matrix(.6293 -.7771 .7771 .6293 -8.8625 40.4993)"/></clipPath><clipPath id="M"><path d="m-.2-11.6h76.5v82.3h-76.5z" transform="matrix(.6293 -.7771 .7771 .6293 -8.8625 40.4993)"/></clipPath><clipPath id="N"><path d="m-.2-11.6h76.5v82.3h-76.5z" transform="matrix(.6293 -.7771 .7771 .6293 -8.8625 40.4993)"/></clipPath><clipPath id="O"><path d="m-.2-11.6h76.5v82.3h-76.5z" transform="matrix(.6293 -.7771 .7771 .6293 -8.8625 40.4993)"/></clipPath><clipPath id="P"><path d="m-.2-11.6h76.5v82.3h-76.5z" transform="matrix(.6293 -.7771 .7771 .6293 -8.8625 40.4993)"/></clipPath><clipPath id="Q"><path d="m-.2-11.6h76.5v82.3h-76.5z" transform="matrix(.6293 -.7771 .7771 .6293 -8.8625 40.4993)"/></clipPath><clipPath id="R"><path d="m-.2-11.6h76.5v82.3h-76.5z" transform="matrix(.6293 -.7771 .7771 .6293 -8.8625 40.4993)"/></clipPath><clipPath id="S"><path d="m-.2-11.6h76.5v82.3h-76.5z" transform="matrix(.6293 -.7771 .7771 .6293 -8.8625 40.4993)"/></clipPath><clipPath id="T"><path d="m-.2-11.6h76.5v82.3h-76.5z" transform="matrix(.6293 -.7771 .7771 .6293 -8.8625 40.4993)"/></clipPath><clipPath id="U"><path d="m-.2-11.6h76.5v82.3h-76.5z" transform="matrix(.6293 -.7771 .7771 .6293 -8.8625 40.4993)"/></clipPath><clipPath id="V"><path d="m-.2-11.6h76.5v82.3h-76.5z" transform="matrix(.6293 -.7771 .7771 .6293 -8.8625 40.4993)"/></clipPath><clipPath id="W"><path d="m-.2-11.6h76.5v82.3h-76.5z" transform="matrix(.6293 -.7771 .7771 .6293 -8.8625 40.4993)"/></clipPath><clipPath id="X"><path d="m-.2-11.6h76.5v82.3h-76.5z" transform="matrix(.6293 -.7771 .7771 .6293 -8.8625 40.4993)"/></clipPath><clipPath id="Y"><path d="m-.2-11.6h76.5v82.3h-76.5z" transform="matrix(.6293 -.7771 .7771 .6293 -8.8625 40.4993)"/></clipPath><clipPath id="Z"><path d="m-.2-11.6h76.5v82.3h-76.5z" transform="matrix(.6293 -.7771 .7771 .6293 -8.8625 40.4993)"/></clipPath><clipPath id="aa"><path d="m-.2-11.6h76.5v82.3h-76.5z" transform="matrix(.6293 -.7771 .7771 .6293 -8.8625 40.4993)"/></clipPath><clipPath id="ab"><path d="m-.2-11.6h76.5v82.3h-76.5z" transform="matrix(.6293 -.7771 .7771 .6293 -8.8625 40.4993)"/></clipPath><clipPath id="ac"><path d="m-.2-11.6h76.5v82.3h-76.5z" transform="matrix(.6293 -.7771 .7771 .6293 -8.8625 40.4993)"/></clipPath><clipPath id="ad"><path d="m-.2-11.6h76.5v82.3h-76.5z" transform="matrix(.6293 -.7771 .7771 .6293 -8.8625 40.4993)"/></clipPath><clipPath id="ae"><path d="m-.2-11.6h76.5v82.3h-76.5z" transform="matrix(.6293 -.7771 .7771 .6293 -8.8625 40.4993)"/></clipPath><clipPath id="af"><path d="m-.2-11.6h76.5v82.3h-76.5z" transform="matrix(.6293 -.7771 .7771 .6293 -8.8625 40.4993)"/></clipPath><clipPath id="ag"><path d="m-.2-11.6h76.5v82.3h-76.5z" transform="matrix(.6293 -.7771 .7771 .6293 -8.8625 40.4993)"/></clipPath><clipPath id="ah"><path d="m-.2-11.6h76.5v82.3h-76.5z" transform="matrix(.6293 -.7771 .7771 .6293 -8.8625 40.4993)"/></clipPath><clipPath id="ai"><path d="m-.2-11.6h76.5v82.3h-76.5z" transform="matrix(.6293 -.7771 .7771 .6293 -8.8625 40.4993)"/></clipPath><clipPath id="aj"><path d="m-.2-11.6h76.5v82.3h-76.5z" transform="matrix(.6293 -.7771 .7771 .6293 -8.8625 40.4993)"/></clipPath><clipPath id="ak"><path d="m-.2-11.6h76.5v82.3h-76.5z" transform="matrix(.6293 -.7771 .7771 .6293 -8.8625 40.4993)"/></clipPath><clipPath id="al"><path d="m-.2-11.6h76.5v82.3h-76.5z" transform="matrix(.6293 -.7771 .7771 .6293 -8.8625 40.4993)"/></clipPath><clipPath id="am"><path d="m-.2-11.6h76.5v82.3h-76.5z" transform="matrix(.6293 -.7771 .7771 .6293 -8.8625 40.4993)"/></clipPath><clipPath id="an"><path d="m-.2-11.6h76.5v82.3h-76.5z" transform="matrix(.6293 -.7771 .7771 .6293 -8.8625 40.4993)"/></clipPath><clipPath id="ao"><path d="m-.2-11.6h76.5v82.3h-76.5z" transform="matrix(.6293 -.7771 .7771 .6293 -8.8625 40.4993)"/></clipPath><clipPath id="ap"><path d="m-.2-11.6h76.5v82.3h-76.5z" transform="matrix(.6293 -.7771 .7771 .6293 -8.8625 40.4993)"/></clipPath><clipPath id="aq"><path d="m-.2-11.6h76.5v82.3h-76.5z" transform="matrix(.6293 -.7771 .7771 .6293 -8.8625 40.4993)"/></clipPath><clipPath id="ar"><path d="m-.2-11.6h76.5v82.3h-76.5z" transform="matrix(.6293 -.7771 .7771 .6293 -8.8625 40.4993)"/></clipPath><clipPath id="as"><path d="m-.2-11.6h76.5v82.3h-76.5z" transform="matrix(.6293 -.7771 .7771 .6293 -8.8625 40.4993)"/></clipPath><path d="m78.8 26.9c-1.3-1.3-2.2-3-2.5-4.9-.1-.6-.2-1.1-.3-1.7-.9-3.7-3.7-6.7-7.3-7.9-.3-.1-.5-.2-.8-.3-1.5-.6-2.7-1.7-3.5-3.1-2.3-4.1-6.8-6.4-11.4-5.8-1.8.2-3.7-.2-5.3-1.2-3.9-2.7-9-2.7-12.9 0-1.6 1-3.5 1.4-5.3 1.2-4.7-.6-9.2 1.7-11.5 5.8-1 1.6-2.5 2.8-4.3 3.4-4.2 1.4-7.2 5.2-7.6 9.6-.2 1.9-1.1 3.6-2.5 4.9-2.3 2.3-3.6 5.5-3.6 8.8v.2c.1 6.1 4.6 11.3 10.7 12.1.6.1 1.1.1 1.7.1h17.8c1.7 0 3.1 1.4 3 3.1v.7c0 1.6-1.2 3-2.8 3.2l-14.4 2.5c-.5 0-.9.4-.9.9v1.8h52.6v-1.8c0-.5-.4-.9-1-.9l-14.4-2.5c-1.6-.2-2.8-1.6-2.8-3.2v-.7c0-1.7 1.4-3.1 3-3.1h17.8c6.8 0 12.4-5.5 12.4-12.4-.2-3.3-1.5-6.5-3.9-8.8z" fill="#008f43"/><g clip-path="url(#a)"><path clip-path="url(#b)" d="m94.1 20.4-57.5-46.5h57.5z" fill="#44af35"/><path clip-path="url(#c)" d="m94.1 21.4-58.6-47.5h1.1l57.5 46.5z" fill="#44af35"/><path clip-path="url(#d)" d="m94.1 22.2-59.7-48.3h1.1l58.6 47.5z" fill="#43af35"/><path clip-path="url(#e)" d="m94.1 23.2-60.8-49.3h1.1l59.7 48.3z" fill="#42ae35"/><path clip-path="url(#f)" d="m94.1 24.1-61.9-50.2h1.1l60.8 49.3z" fill="#41ae36"/><path clip-path="url(#g)" d="m94.1 25-63.1-51.1h1.2l61.9 50.2z" fill="#40ad36"/><path clip-path="url(#h)" d="m94.1 25.9-64.2-52h1.1l63.1 51.1z" fill="#3fad36"/><path clip-path="url(#i)" d="m94.1 26.8-65.3-52.9h1.1l64.2 52z" fill="#3eac36"/><path clip-path="url(#j)" d="m94.1 27.7-66.4-53.8h1.1l65.3 52.9z" fill="#3dac37"/><path clip-path="url(#k)" d="m94.1 28.6-67.5-54.7h1.1l66.4 53.8z" fill="#3cab37"/><path clip-path="url(#l)" d="m94.1 29.5-68.6-55.6h1.1l67.5 54.7z" fill="#3bab37"/><path clip-path="url(#m)" d="m94.1 30.4-69.8-56.5h1.2l68.6 55.6z" fill="#3aaa37"/><path clip-path="url(#n)" d="m94.1 31.3-70.9-57.4h1.1l69.8 56.5z" fill="#39aa38"/><path clip-path="url(#o)" d="m94.1 32.2-72-58.3h1.1l70.9 57.4z" fill="#37a938"/><path clip-path="url(#p)" d="m94.1 33.1-73.1-59.2h1.1l72 58.3z" fill="#36a938"/><path clip-path="url(#q)" d="m94.1 34-74.2-60.1h1.1l73.1 59.2z" fill="#35a838"/><path clip-path="url(#r)" d="m94.1 34.9-75.3-61h1.1l74.2 60.1z" fill="#34a838"/><path clip-path="url(#s)" d="m94.1 35.8-76.5-61.9h1.2l75.3 61z" fill="#33a739"/><path clip-path="url(#t)" d="m94.1 36.7-77.6-62.8h1.1l76.5 61.9z" fill="#32a739"/><path clip-path="url(#u)" d="m94.1 37.6-78.7-63.7h1.1l77.6 62.8z" fill="#31a639"/><path clip-path="url(#v)" d="m94.1 38.5-79.8-64.6h1.1l78.7 63.7z" fill="#30a639"/><path clip-path="url(#w)" d="m94.1 39.4-80.9-65.5h1.1l79.8 64.6z" fill="#2fa53a"/><path clip-path="url(#x)" d="m94.1 40.3-82.1-66.4h1.2l80.9 65.5z" fill="#2ea53a"/><path clip-path="url(#y)" d="m94.1 41.2-83.2-67.3h1.1l82.1 66.4z" fill="#2da43a"/><path clip-path="url(#z)" d="m94.1 42.4-84.6-68.5h1.4l83.2 67.3z" fill="#2da43a"/><path clip-path="url(#A)" d="m94.1 43.5-85.9-69.6h1.3l84.6 68.5z" fill="#2ca43a"/><path clip-path="url(#B)" d="m94.1 44.6-87.3-70.7h1.4l85.9 69.6z" fill="#2ba33a"/><path clip-path="url(#C)" d="m94.1 45.7-88.7-71.8h1.4l87.3 70.7z" fill="#2aa33b"/><path clip-path="url(#D)" d="m94.1 46.9-90.1-73h1.4l88.7 71.8z" fill="#29a23b"/><path clip-path="url(#E)" d="m94.1 48-91.5-74.1h1.4l90.1 73z" fill="#28a23b"/><path clip-path="url(#F)" d="m94.1 49.1-92.9-75.2h1.4l91.5 74.1z" fill="#27a13b"/><path clip-path="url(#G)" d="m94.1 50.2-94.3-76.3h1.4l92.9 75.2z" fill="#26a13b"/><path clip-path="url(#H)" d="m94.1 51.3-95.6-77.4h1.3l94.3 76.3z" fill="#25a03c"/><path clip-path="url(#I)" d="m94.1 52.5-97-78.6h1.4l95.6 77.4z" fill="#24a03c"/><path clip-path="url(#J)" d="m94.1 53.6-98.4-79.7h1.4l97 78.6z" fill="#239f3c"/><path clip-path="url(#K)" d="m94.1 54.7-99.8-80.8h1.4l98.4 79.7z" fill="#229f3c"/><path clip-path="url(#L)" d="m94.1 55.8-101.2-81.9h1.4l99.8 80.8z" fill="#219e3d"/><path clip-path="url(#M)" d="m94.1 57-102.6-83.1h1.4l101.2 81.9z" fill="#1f9e3d"/><path clip-path="url(#N)" d="m94.1 58.1-104-84.2h1.4l102.6 83.1z" fill="#1e9d3d"/><path clip-path="url(#O)" d="m94.1 59.2-105.3-85.3h1.3l104 84.2z" fill="#1d9d3d"/><path clip-path="url(#P)" d="m94.1 60.3-106.7-86.4h1.4l105.3 85.3z" fill="#1c9c3d"/><path clip-path="url(#Q)" d="m94.1 61.4-108.1-87.5h1.4l106.7 86.4z" fill="#1b9c3e"/><path clip-path="url(#R)" d="m94.1 62.6-109.5-88.7h1.4l108.1 87.5z" fill="#1a9b3e"/><path clip-path="url(#S)" d="m94.1 63.7-110.9-89.8h1.4l109.5 88.7z" fill="#199b3e"/><path clip-path="url(#T)" d="m94.1 64.8-112.1-90.8v-.1h1.2l110.9 89.8z" fill="#189a3e"/><path clip-path="url(#U)" d="m94.1 65.9-112.1-90.8v-1.1l112.1 90.8z" fill="#179a3e"/><path clip-path="url(#V)" d="m94.1 67.1-112.1-90.8v-1.2l112.1 90.8z" fill="#16993f"/><path clip-path="url(#W)" d="m94.1 68.2-112.1-90.8v-1.1l112.1 90.8z" fill="#15993f"/><path clip-path="url(#X)" d="m94.1 69.3-112.1-90.8v-1.1l112.1 90.8z" fill="#14983f"/><path clip-path="url(#Y)" d="m94.1 71-112.1-90.8v-1.7l112.1 90.8z" fill="#14983f"/><path clip-path="url(#Z)" d="m94.1 72.7-112.1-90.8v-1.7l112.1 90.8z" fill="#13983f"/><path clip-path="url(#aa)" d="m94.1 74.4-112.1-90.7v-1.8l112.1 90.8z" fill="#12973f"/><path clip-path="url(#ab)" d="m94.1 76.2-112.1-90.8v-1.7l112.1 90.7z" fill="#119740"/><path clip-path="url(#ac)" d="m94.1 77.9-112.1-90.8v-1.7l112.1 90.8z" fill="#109640"/><path clip-path="url(#ad)" d="m94.1 79.6-112.1-90.8v-1.7l112.1 90.8z" fill="#0f9640"/><path clip-path="url(#ae)" d="m94.1 81.3-112.1-90.8v-1.7l112.1 90.8z" fill="#0e9540"/><path clip-path="url(#af)" d="m94.1 83-112.1-90.8v-1.7l112.1 90.8z" fill="#0d9541"/><path clip-path="url(#ag)" d="m94.1 84.7-112.1-90.8v-1.7l112.1 90.8z" fill="#0b9441"/><path clip-path="url(#ah)" d="m92.5 85.2-110.5-89.5v-1.8l112.1 90.8v.5z" fill="#0a9441"/><path clip-path="url(#ai)" d="m90.4 85.2-108.4-87.8v-1.7l110.5 89.5z" fill="#099341"/><path clip-path="url(#aj)" d="m88.3 85.2-106.3-86.1v-1.7l108.4 87.8z" fill="#089341"/><path clip-path="url(#ak)" d="m86.2 85.2-104.2-84.4v-1.7l106.3 86.1z" fill="#079242"/><path clip-path="url(#al)" d="m84 85.2-102-82.7v-1.7l104.2 84.4z" fill="#069242"/><path clip-path="url(#am)" d="m81.9 85.2-99.9-81v-1.7l102 82.7z" fill="#059142"/><path clip-path="url(#an)" d="m76.7 85.2-94.7-76.8v-4.2l99.9 81z" fill="#059142"/><path clip-path="url(#ao)" d="m71.5 85.2-89.5-72.6v-4.2l94.7 76.8z" fill="#049142"/><path clip-path="url(#ap)" d="m66.3 85.2-84.3-68.3v-4.3l89.5 72.6z" fill="#039043"/><path clip-path="url(#aq)" d="m61.1 85.2-79.1-64.2v-4.1l84.3 68.3z" fill="#019043"/><g fill="#008f43"><path clip-path="url(#ar)" d="m55.9 85.2-73.9-59.9v-4.3l79.1 64.2z"/><path clip-path="url(#as)" d="m-18 25.3 73.9 59.9h-73.9z"/></g></g><path d="m78.8 26.9c-1.3-1.3-2.2-3-2.5-4.9-.1-.6-.2-1.1-.3-1.7-11-1-24.2 1.3-37.3 7.2-11.7 5.3-21.4 12.6-28 20.5.6.1 1.1.1 1.7.1h17.8c1.7 0 3.1 1.4 3 3.1v.7c0 1.6-1.2 3-2.8 3.2l-14.4 2.5c-.5 0-.9.4-.9.9v1.8h52.6v-1.8c0-.5-.4-.9-1-.9l-14.4-2.5c-1.6-.2-2.8-1.6-2.8-3.2v-.7c0-1.7 1.4-3.1 3-3.1h17.8c6.8 0 12.4-5.5 12.4-12.4-.2-3.3-1.5-6.5-3.9-8.8" fill="#008f43"/></svg>