<svg width="512" height="512" viewBox="0 0 512 512" fill="none" xmlns="http://www.w3.org/2000/svg">
<g clip-path="url(#clip0_2_23)">
<rect x="49" y="90" width="429" height="316" rx="85" fill="white"/>
<path d="M212.611 3.30187C110.937 22.8659 33.5701 94.3043 6.89188 193.31C-2.29729 227.103 -2.29729 286.98 6.89188 320.773C27.0488 395.768 77.7374 456.832 147.397 489.735C184.154 507.224 210.536 512.856 256.185 512.856C287.606 512.856 301.242 511.374 319.917 506.335C411.216 481.732 480.875 412.368 505.479 320.773C510.814 301.802 512 288.759 512 257.042C512 225.324 510.814 212.281 505.479 193.31C485.322 118.018 434.633 57.2512 364.973 24.348C321.102 3.30187 257.964 -5.29446 212.611 3.30187ZM350.448 124.243L351.338 156.257H318.435H285.828V271.863V387.469H256.185H226.543V301.505V215.542H147.99H69.4375V185.9V156.257H176.151H282.864V125.725C282.864 108.829 283.753 94.0079 284.938 92.8222C286.124 91.9329 300.945 91.3401 318.138 91.6365L349.559 92.5258L350.448 124.243ZM471.983 242.813L472.872 271.863H437.301H401.433L400.841 328.776L399.951 385.986L371.198 386.876L342.149 387.765V300.023V212.578L406.769 213.171L471.093 214.06L471.983 242.813ZM170.222 329.666V387.765L141.469 386.876L112.419 385.986L111.53 356.937L110.641 328.184H82.7767H54.6163V300.023V271.863H112.419H170.222V329.666Z" fill="#FF0000"/>
</g>
<defs>
<clipPath id="clip0_2_23">
<rect width="512" height="512" fill="white"/>
</clipPath>
</defs>
</svg>
